<mxfile host="app.diagrams.net" modified="2023-08-07T09:40:39.419Z" agent="Mozilla/5.0 (Windows NT 10.0; Win64; x64) AppleWebKit/537.36 (KHTML, like Gecko) Chrome/115.0.0.0 Safari/537.36" version="21.6.6" etag="OG4HL9WwbPHtXYvOfdKu" type="github">
  <diagram name="第 1 页" id="13vvjPdpNyAyPN76SAYI">
    <mxGraphModel>
      <root>
        <mxCell id="0" />
        <mxCell id="1" parent="0" />
      </root>
    </mxGraphModel>
  </diagram>
</mxfile>
